<mxfile host="app.diagrams.net" modified="2023-05-08T21:41:31.883Z" agent="Mozilla/5.0 (Windows NT 10.0; Win64; x64) AppleWebKit/537.36 (KHTML, like Gecko) Chrome/112.0.0.0 Safari/537.36" etag="frMXE9bVnTTtOkLivIPq" version="21.2.9" type="device" pages="2">
  <diagram id="R2lEEEUBdFMjLlhIrx00" name="Page-1">
    <mxGraphModel dx="1434" dy="796" grid="1" gridSize="10" guides="1" tooltips="1" connect="1" arrows="1" fold="1" page="1" pageScale="1" pageWidth="850" pageHeight="1100" math="0" shadow="0" extFonts="Permanent Marker^https://fonts.googleapis.com/css?family=Permanent+Marker">
      <root>
        <mxCell id="0" />
        <mxCell id="1" parent="0" />
        <mxCell id="rqlcjRD2Wb6B74tPUmd8-22" value="Client" style="whiteSpace=wrap;html=1;align=center;" parent="1" vertex="1">
          <mxGeometry x="40" y="250" width="100" height="40" as="geometry" />
        </mxCell>
        <mxCell id="rqlcjRD2Wb6B74tPUmd8-23" value="name" style="ellipse;whiteSpace=wrap;html=1;align=center;" parent="1" vertex="1">
          <mxGeometry x="30" y="130" width="100" height="40" as="geometry" />
        </mxCell>
        <mxCell id="rqlcjRD2Wb6B74tPUmd8-24" value="e-mail" style="ellipse;whiteSpace=wrap;html=1;align=center;" parent="1" vertex="1">
          <mxGeometry x="160" y="130" width="100" height="40" as="geometry" />
        </mxCell>
        <mxCell id="rqlcjRD2Wb6B74tPUmd8-26" value="Package" style="whiteSpace=wrap;html=1;align=center;" parent="1" vertex="1">
          <mxGeometry x="40" y="310" width="100" height="40" as="geometry" />
        </mxCell>
        <mxCell id="rqlcjRD2Wb6B74tPUmd8-27" value="Product" style="whiteSpace=wrap;html=1;align=center;" parent="1" vertex="1">
          <mxGeometry x="40" y="370" width="100" height="40" as="geometry" />
        </mxCell>
        <mxCell id="rqlcjRD2Wb6B74tPUmd8-28" value="Payment Method" style="whiteSpace=wrap;html=1;align=center;" parent="1" vertex="1">
          <mxGeometry x="160" y="310" width="100" height="40" as="geometry" />
        </mxCell>
        <mxCell id="rqlcjRD2Wb6B74tPUmd8-29" value="Purchase" style="whiteSpace=wrap;html=1;align=center;" parent="1" vertex="1">
          <mxGeometry x="160" y="370" width="100" height="40" as="geometry" />
        </mxCell>
        <mxCell id="rqlcjRD2Wb6B74tPUmd8-30" value="Supplier" style="whiteSpace=wrap;html=1;align=center;" parent="1" vertex="1">
          <mxGeometry x="40" y="430" width="100" height="40" as="geometry" />
        </mxCell>
        <mxCell id="rqlcjRD2Wb6B74tPUmd8-31" value="Employee" style="whiteSpace=wrap;html=1;align=center;" parent="1" vertex="1">
          <mxGeometry x="160" y="250" width="100" height="40" as="geometry" />
        </mxCell>
        <mxCell id="rqlcjRD2Wb6B74tPUmd8-32" value="Department" style="whiteSpace=wrap;html=1;align=center;" parent="1" vertex="1">
          <mxGeometry x="160" y="430" width="100" height="40" as="geometry" />
        </mxCell>
        <mxCell id="rqlcjRD2Wb6B74tPUmd8-33" value="Workplace" style="whiteSpace=wrap;html=1;align=center;" parent="1" vertex="1">
          <mxGeometry x="40" y="490" width="100" height="40" as="geometry" />
        </mxCell>
        <mxCell id="rqlcjRD2Wb6B74tPUmd8-34" value="client_nr" style="ellipse;whiteSpace=wrap;html=1;align=center;" parent="1" vertex="1">
          <mxGeometry x="30" y="180" width="100" height="40" as="geometry" />
        </mxCell>
        <mxCell id="rqlcjRD2Wb6B74tPUmd8-35" value="date" style="ellipse;whiteSpace=wrap;html=1;align=center;" parent="1" vertex="1">
          <mxGeometry x="160" y="180" width="100" height="40" as="geometry" />
        </mxCell>
        <mxCell id="rqlcjRD2Wb6B74tPUmd8-36" value="sku" style="ellipse;whiteSpace=wrap;html=1;align=center;" parent="1" vertex="1">
          <mxGeometry x="325" y="120" width="100" height="40" as="geometry" />
        </mxCell>
        <mxCell id="rqlcjRD2Wb6B74tPUmd8-37" value="description" style="ellipse;whiteSpace=wrap;html=1;align=center;" parent="1" vertex="1">
          <mxGeometry x="325" y="180" width="100" height="40" as="geometry" />
        </mxCell>
        <mxCell id="rqlcjRD2Wb6B74tPUmd8-38" value="price" style="ellipse;whiteSpace=wrap;html=1;align=center;" parent="1" vertex="1">
          <mxGeometry x="440" y="170" width="100" height="40" as="geometry" />
        </mxCell>
        <mxCell id="rqlcjRD2Wb6B74tPUmd8-39" value="ean" style="ellipse;whiteSpace=wrap;html=1;align=center;" parent="1" vertex="1">
          <mxGeometry x="440" y="120" width="100" height="40" as="geometry" />
        </mxCell>
        <mxCell id="rqlcjRD2Wb6B74tPUmd8-40" value="id_token" style="ellipse;whiteSpace=wrap;html=1;align=center;" parent="1" vertex="1">
          <mxGeometry x="550" y="120" width="100" height="40" as="geometry" />
        </mxCell>
        <mxCell id="rqlcjRD2Wb6B74tPUmd8-41" value="birthdate" style="ellipse;whiteSpace=wrap;html=1;align=center;" parent="1" vertex="1">
          <mxGeometry x="325" y="240" width="100" height="40" as="geometry" />
        </mxCell>
        <mxCell id="rqlcjRD2Wb6B74tPUmd8-42" value="nif" style="ellipse;whiteSpace=wrap;html=1;align=center;" parent="1" vertex="1">
          <mxGeometry x="570" y="230" width="100" height="40" as="geometry" />
        </mxCell>
        <mxCell id="rqlcjRD2Wb6B74tPUmd8-43" value="ssn" style="ellipse;whiteSpace=wrap;html=1;align=center;" parent="1" vertex="1">
          <mxGeometry x="450" y="240" width="100" height="40" as="geometry" />
        </mxCell>
        <mxCell id="rqlcjRD2Wb6B74tPUmd8-45" value="address" style="ellipse;whiteSpace=wrap;html=1;align=center;" parent="1" vertex="1">
          <mxGeometry x="550" y="170" width="100" height="40" as="geometry" />
        </mxCell>
        <mxCell id="rqlcjRD2Wb6B74tPUmd8-47" value="gps_coords" style="ellipse;whiteSpace=wrap;html=1;align=center;" parent="1" vertex="1">
          <mxGeometry x="330" y="290" width="100" height="40" as="geometry" />
        </mxCell>
        <mxCell id="QmyhPEerQrhwBy7x9rSY-1" value="phone_nr" style="ellipse;whiteSpace=wrap;html=1;align=center;" vertex="1" parent="1">
          <mxGeometry x="450" y="290" width="100" height="40" as="geometry" />
        </mxCell>
        <mxCell id="nTR4MAPWXORbtsmNuFwr-2" value="Address" style="whiteSpace=wrap;html=1;align=center;" vertex="1" parent="1">
          <mxGeometry x="160" y="490" width="100" height="40" as="geometry" />
        </mxCell>
        <mxCell id="89TxU9MuDKIuasTceKYH-1" value="order_nr" style="ellipse;whiteSpace=wrap;html=1;align=center;" vertex="1" parent="1">
          <mxGeometry x="570" y="290" width="100" height="40" as="geometry" />
        </mxCell>
        <mxCell id="L9WDbDPnurCAFGdGnIee-1" value="Contract" style="whiteSpace=wrap;html=1;align=center;" vertex="1" parent="1">
          <mxGeometry x="40" y="550" width="100" height="40" as="geometry" />
        </mxCell>
      </root>
    </mxGraphModel>
  </diagram>
  <diagram id="8qCRcGmCOF4rFj097h6t" name="PÃ¡gina-2">
    <mxGraphModel dx="2261" dy="796" grid="1" gridSize="10" guides="1" tooltips="1" connect="1" arrows="1" fold="1" page="1" pageScale="1" pageWidth="827" pageHeight="1169" math="0" shadow="0">
      <root>
        <mxCell id="0" />
        <mxCell id="1" parent="0" />
        <mxCell id="54_bh6-1oMQ8IkkRyYgu-1" value="Client" style="whiteSpace=wrap;html=1;align=center;" vertex="1" parent="1">
          <mxGeometry x="-700" y="120" width="100" height="40" as="geometry" />
        </mxCell>
        <mxCell id="yRGEbFycDsyiz_T9nmF4-1" value="&lt;u&gt;e-mail&lt;/u&gt;" style="ellipse;whiteSpace=wrap;html=1;align=center;" vertex="1" parent="1">
          <mxGeometry x="-700" y="30" width="100" height="40" as="geometry" />
        </mxCell>
        <mxCell id="aHvqfRXxni2usZU7KU8_-1" value="&lt;u&gt;client_nr&lt;/u&gt;" style="ellipse;whiteSpace=wrap;html=1;align=center;" vertex="1" parent="1">
          <mxGeometry x="-810" y="40" width="100" height="40" as="geometry" />
        </mxCell>
        <mxCell id="aHvqfRXxni2usZU7KU8_-2" value="" style="endArrow=none;html=1;rounded=0;exitX=0.25;exitY=0;exitDx=0;exitDy=0;entryX=0.5;entryY=1;entryDx=0;entryDy=0;" edge="1" parent="1" source="54_bh6-1oMQ8IkkRyYgu-1" target="yRGEbFycDsyiz_T9nmF4-1">
          <mxGeometry width="50" height="50" relative="1" as="geometry">
            <mxPoint x="-640" y="120" as="sourcePoint" />
            <mxPoint x="-590" y="70" as="targetPoint" />
          </mxGeometry>
        </mxCell>
        <mxCell id="PVXVzk2ga0G63WjyYfwa-1" value="name" style="ellipse;whiteSpace=wrap;html=1;align=center;" vertex="1" parent="1">
          <mxGeometry x="-593" y="40" width="100" height="40" as="geometry" />
        </mxCell>
        <mxCell id="jD_CwOrF6JIPl7kdIr9d-1" value="phone_nr" style="ellipse;whiteSpace=wrap;html=1;align=center;" vertex="1" parent="1">
          <mxGeometry x="-533" y="90" width="100" height="40" as="geometry" />
        </mxCell>
        <mxCell id="jD_CwOrF6JIPl7kdIr9d-2" value="" style="endArrow=none;html=1;rounded=0;entryX=0;entryY=1;entryDx=0;entryDy=0;" edge="1" parent="1" source="54_bh6-1oMQ8IkkRyYgu-1" target="PVXVzk2ga0G63WjyYfwa-1">
          <mxGeometry width="50" height="50" relative="1" as="geometry">
            <mxPoint x="-600" y="135" as="sourcePoint" />
            <mxPoint x="-550" y="85" as="targetPoint" />
          </mxGeometry>
        </mxCell>
        <mxCell id="jD_CwOrF6JIPl7kdIr9d-3" value="" style="endArrow=none;html=1;rounded=0;exitX=1;exitY=0.25;exitDx=0;exitDy=0;" edge="1" parent="1" source="54_bh6-1oMQ8IkkRyYgu-1" target="jD_CwOrF6JIPl7kdIr9d-1">
          <mxGeometry width="50" height="50" relative="1" as="geometry">
            <mxPoint x="-620" y="150" as="sourcePoint" />
            <mxPoint x="-570" y="100" as="targetPoint" />
          </mxGeometry>
        </mxCell>
        <mxCell id="ku9MdV7ST4dIyvdVZiwi-1" value="Address" style="whiteSpace=wrap;html=1;align=center;" vertex="1" parent="1">
          <mxGeometry x="-730" y="180" width="100" height="40" as="geometry" />
        </mxCell>
        <mxCell id="ku9MdV7ST4dIyvdVZiwi-2" value="" style="endArrow=none;html=1;rounded=0;entryX=0.36;entryY=1;entryDx=0;entryDy=0;entryPerimeter=0;" edge="1" parent="1" source="ku9MdV7ST4dIyvdVZiwi-1" target="54_bh6-1oMQ8IkkRyYgu-1">
          <mxGeometry width="50" height="50" relative="1" as="geometry">
            <mxPoint x="-664" y="200" as="sourcePoint" />
            <mxPoint x="-615" y="180" as="targetPoint" />
          </mxGeometry>
        </mxCell>
        <mxCell id="zIF1-sFmZd1mGWzO1_YR-1" value="Package" style="whiteSpace=wrap;html=1;align=center;" vertex="1" parent="1">
          <mxGeometry x="40" y="120" width="100" height="40" as="geometry" />
        </mxCell>
        <mxCell id="VhAZq9kdq_vKJowKNHZd-1" value="date" style="ellipse;whiteSpace=wrap;html=1;align=center;" vertex="1" parent="1">
          <mxGeometry x="130" y="50" width="100" height="40" as="geometry" />
        </mxCell>
        <mxCell id="fus3A_ofQ-xXUpsNWHVn-1" value="order_nr" style="ellipse;whiteSpace=wrap;html=1;align=center;" vertex="1" parent="1">
          <mxGeometry x="10" y="50" width="100" height="40" as="geometry" />
        </mxCell>
        <mxCell id="fus3A_ofQ-xXUpsNWHVn-2" value="" style="endArrow=none;html=1;rounded=0;entryX=0;entryY=1;entryDx=0;entryDy=0;" edge="1" parent="1" target="VhAZq9kdq_vKJowKNHZd-1">
          <mxGeometry width="50" height="50" relative="1" as="geometry">
            <mxPoint x="120" y="120" as="sourcePoint" />
            <mxPoint x="160" y="80" as="targetPoint" />
          </mxGeometry>
        </mxCell>
        <mxCell id="fus3A_ofQ-xXUpsNWHVn-3" value="" style="endArrow=none;html=1;rounded=0;" edge="1" parent="1" source="zIF1-sFmZd1mGWzO1_YR-1">
          <mxGeometry width="50" height="50" relative="1" as="geometry">
            <mxPoint x="10" y="140" as="sourcePoint" />
            <mxPoint x="60" y="90" as="targetPoint" />
          </mxGeometry>
        </mxCell>
        <mxCell id="YWGquo0lC3HLDpw0cS1s-1" value="Payment Method" style="whiteSpace=wrap;html=1;align=center;" vertex="1" parent="1">
          <mxGeometry x="520" y="330" width="100" height="40" as="geometry" />
        </mxCell>
        <mxCell id="YWGquo0lC3HLDpw0cS1s-2" value="name" style="ellipse;whiteSpace=wrap;html=1;align=center;" vertex="1" parent="1">
          <mxGeometry x="670" y="290" width="100" height="40" as="geometry" />
        </mxCell>
        <mxCell id="YWGquo0lC3HLDpw0cS1s-3" value="" style="endArrow=none;html=1;rounded=0;entryX=0;entryY=0.5;entryDx=0;entryDy=0;exitX=1;exitY=0;exitDx=0;exitDy=0;" edge="1" parent="1" source="YWGquo0lC3HLDpw0cS1s-1">
          <mxGeometry width="50" height="50" relative="1" as="geometry">
            <mxPoint x="600" y="335" as="sourcePoint" />
            <mxPoint x="670" y="310" as="targetPoint" />
          </mxGeometry>
        </mxCell>
        <mxCell id="6Z6Kn-SmLZc3mSp6tz2t-1" value="id_token" style="ellipse;whiteSpace=wrap;html=1;align=center;" vertex="1" parent="1">
          <mxGeometry x="670" y="370" width="100" height="40" as="geometry" />
        </mxCell>
        <mxCell id="6Z6Kn-SmLZc3mSp6tz2t-2" value="" style="endArrow=none;html=1;rounded=0;entryX=0;entryY=0.5;entryDx=0;entryDy=0;" edge="1" parent="1" target="6Z6Kn-SmLZc3mSp6tz2t-1">
          <mxGeometry width="50" height="50" relative="1" as="geometry">
            <mxPoint x="610" y="370" as="sourcePoint" />
            <mxPoint x="660" y="350" as="targetPoint" />
          </mxGeometry>
        </mxCell>
        <mxCell id="gmhd0WoPo1i5jf-XHKNB-1" value="Product" style="whiteSpace=wrap;html=1;align=center;" vertex="1" parent="1">
          <mxGeometry x="-493" y="460" width="100" height="40" as="geometry" />
        </mxCell>
        <mxCell id="HvnsjwU_tgJl0v8g10kq-1" value="&lt;u&gt;sku&lt;/u&gt;" style="ellipse;whiteSpace=wrap;html=1;align=center;" vertex="1" parent="1">
          <mxGeometry x="-373" y="390" width="100" height="40" as="geometry" />
        </mxCell>
        <mxCell id="HvnsjwU_tgJl0v8g10kq-2" value="name" style="ellipse;whiteSpace=wrap;html=1;align=center;" vertex="1" parent="1">
          <mxGeometry x="-353" y="450" width="100" height="40" as="geometry" />
        </mxCell>
        <mxCell id="a0uIcc1W89zvRtZt0gqE-1" value="description" style="ellipse;whiteSpace=wrap;html=1;align=center;" vertex="1" parent="1">
          <mxGeometry x="-493" y="380" width="100" height="40" as="geometry" />
        </mxCell>
        <mxCell id="wFGoBrplBaFIWS9Vu0eB-1" value="price" style="ellipse;whiteSpace=wrap;html=1;align=center;" vertex="1" parent="1">
          <mxGeometry x="-383" y="520" width="100" height="40" as="geometry" />
        </mxCell>
        <mxCell id="46w5EHlPqLXBW7jBuaED-1" value="" style="endArrow=none;html=1;rounded=0;entryX=0.5;entryY=1;entryDx=0;entryDy=0;" edge="1" parent="1" target="a0uIcc1W89zvRtZt0gqE-1">
          <mxGeometry width="50" height="50" relative="1" as="geometry">
            <mxPoint x="-468" y="460" as="sourcePoint" />
            <mxPoint x="-418" y="410" as="targetPoint" />
          </mxGeometry>
        </mxCell>
        <mxCell id="46w5EHlPqLXBW7jBuaED-2" value="" style="endArrow=none;html=1;rounded=0;" edge="1" parent="1">
          <mxGeometry width="50" height="50" relative="1" as="geometry">
            <mxPoint x="-403" y="460" as="sourcePoint" />
            <mxPoint x="-363" y="420" as="targetPoint" />
          </mxGeometry>
        </mxCell>
        <mxCell id="46w5EHlPqLXBW7jBuaED-3" value="" style="endArrow=none;html=1;rounded=0;entryX=0;entryY=0.5;entryDx=0;entryDy=0;" edge="1" parent="1" target="HvnsjwU_tgJl0v8g10kq-2">
          <mxGeometry width="50" height="50" relative="1" as="geometry">
            <mxPoint x="-393" y="480" as="sourcePoint" />
            <mxPoint x="-343" y="430" as="targetPoint" />
          </mxGeometry>
        </mxCell>
        <mxCell id="46w5EHlPqLXBW7jBuaED-4" value="" style="endArrow=none;html=1;rounded=0;" edge="1" parent="1" target="wFGoBrplBaFIWS9Vu0eB-1">
          <mxGeometry width="50" height="50" relative="1" as="geometry">
            <mxPoint x="-423" y="500" as="sourcePoint" />
            <mxPoint x="-373" y="450" as="targetPoint" />
          </mxGeometry>
        </mxCell>
        <mxCell id="J_gct4WKO3h9TqhabnRm-1" value="ean" style="ellipse;whiteSpace=wrap;html=1;align=center;" vertex="1" parent="1">
          <mxGeometry x="-573" y="520" width="100" height="40" as="geometry" />
        </mxCell>
        <mxCell id="J_gct4WKO3h9TqhabnRm-2" value="" style="endArrow=none;html=1;rounded=0;entryX=0;entryY=0.75;entryDx=0;entryDy=0;" edge="1" parent="1" target="gmhd0WoPo1i5jf-XHKNB-1">
          <mxGeometry width="50" height="50" relative="1" as="geometry">
            <mxPoint x="-513" y="520" as="sourcePoint" />
            <mxPoint x="-463" y="470" as="targetPoint" />
          </mxGeometry>
        </mxCell>
        <mxCell id="6XBY88Ic3IugKkJA0Mb7-1" value="Supplier" style="whiteSpace=wrap;html=1;align=center;" vertex="1" parent="1">
          <mxGeometry x="110" y="450" width="100" height="40" as="geometry" />
        </mxCell>
        <mxCell id="6XBY88Ic3IugKkJA0Mb7-2" value="name" style="ellipse;whiteSpace=wrap;html=1;align=center;" vertex="1" parent="1">
          <mxGeometry x="240" y="400" width="100" height="40" as="geometry" />
        </mxCell>
        <mxCell id="edwFWHqzeMm4GOHZCuRB-1" value="nif" style="ellipse;whiteSpace=wrap;html=1;align=center;" vertex="1" parent="1">
          <mxGeometry x="240" y="490" width="100" height="40" as="geometry" />
        </mxCell>
        <mxCell id="edwFWHqzeMm4GOHZCuRB-2" value="" style="endArrow=none;html=1;rounded=0;entryX=0;entryY=0.5;entryDx=0;entryDy=0;" edge="1" parent="1" target="6XBY88Ic3IugKkJA0Mb7-2">
          <mxGeometry width="50" height="50" relative="1" as="geometry">
            <mxPoint x="190" y="450" as="sourcePoint" />
            <mxPoint x="240" y="400" as="targetPoint" />
          </mxGeometry>
        </mxCell>
        <mxCell id="edwFWHqzeMm4GOHZCuRB-3" value="" style="endArrow=none;html=1;rounded=0;entryX=0;entryY=0.5;entryDx=0;entryDy=0;" edge="1" parent="1" target="edwFWHqzeMm4GOHZCuRB-1">
          <mxGeometry width="50" height="50" relative="1" as="geometry">
            <mxPoint x="210" y="490" as="sourcePoint" />
            <mxPoint x="260" y="440" as="targetPoint" />
          </mxGeometry>
        </mxCell>
        <mxCell id="qWf9jR-Rdo36MzmohCjE-1" value="Contract" style="whiteSpace=wrap;html=1;align=center;" vertex="1" parent="1">
          <mxGeometry x="80" y="380" width="100" height="40" as="geometry" />
        </mxCell>
        <mxCell id="qWf9jR-Rdo36MzmohCjE-2" value="" style="endArrow=none;html=1;rounded=0;" edge="1" parent="1" source="6XBY88Ic3IugKkJA0Mb7-1">
          <mxGeometry width="50" height="50" relative="1" as="geometry">
            <mxPoint x="90" y="470" as="sourcePoint" />
            <mxPoint x="140" y="420" as="targetPoint" />
          </mxGeometry>
        </mxCell>
        <mxCell id="uIjj79Ns8Ux3DjV1TIqL-1" value="Employee" style="whiteSpace=wrap;html=1;align=center;" vertex="1" parent="1">
          <mxGeometry x="-643" y="920" width="100" height="40" as="geometry" />
        </mxCell>
        <mxCell id="uIjj79Ns8Ux3DjV1TIqL-2" value="name" style="ellipse;whiteSpace=wrap;html=1;align=center;" vertex="1" parent="1">
          <mxGeometry x="-533" y="850" width="100" height="40" as="geometry" />
        </mxCell>
        <mxCell id="uIjj79Ns8Ux3DjV1TIqL-3" value="" style="endArrow=none;html=1;rounded=0;" edge="1" parent="1">
          <mxGeometry width="50" height="50" relative="1" as="geometry">
            <mxPoint x="-563" y="920" as="sourcePoint" />
            <mxPoint x="-523" y="880" as="targetPoint" />
          </mxGeometry>
        </mxCell>
        <mxCell id="H-fQ_DOUVkPlajtHrgme-1" value="birthdate" style="ellipse;whiteSpace=wrap;html=1;align=center;" vertex="1" parent="1">
          <mxGeometry x="-513" y="910" width="100" height="40" as="geometry" />
        </mxCell>
        <mxCell id="TVfA75WVckYDDB1UDJfP-1" value="nif" style="ellipse;whiteSpace=wrap;html=1;align=center;" vertex="1" parent="1">
          <mxGeometry x="-683" y="850" width="100" height="40" as="geometry" />
        </mxCell>
        <mxCell id="gR6BaFZrmbdB83TJWghy-1" value="ssn" style="ellipse;whiteSpace=wrap;html=1;align=center;" vertex="1" parent="1">
          <mxGeometry x="-773" y="900" width="100" height="40" as="geometry" />
        </mxCell>
        <mxCell id="gR6BaFZrmbdB83TJWghy-2" value="" style="endArrow=none;html=1;rounded=0;entryX=0.6;entryY=1;entryDx=0;entryDy=0;entryPerimeter=0;" edge="1" parent="1" target="TVfA75WVckYDDB1UDJfP-1">
          <mxGeometry width="50" height="50" relative="1" as="geometry">
            <mxPoint x="-628" y="920" as="sourcePoint" />
            <mxPoint x="-578" y="870" as="targetPoint" />
          </mxGeometry>
        </mxCell>
        <mxCell id="gR6BaFZrmbdB83TJWghy-3" value="" style="endArrow=none;html=1;rounded=0;exitX=0.5;exitY=1;exitDx=0;exitDy=0;" edge="1" parent="1" source="gR6BaFZrmbdB83TJWghy-1">
          <mxGeometry width="50" height="50" relative="1" as="geometry">
            <mxPoint x="-693" y="990" as="sourcePoint" />
            <mxPoint x="-643" y="940" as="targetPoint" />
          </mxGeometry>
        </mxCell>
        <mxCell id="gR6BaFZrmbdB83TJWghy-4" value="" style="endArrow=none;html=1;rounded=0;entryX=0.06;entryY=0.725;entryDx=0;entryDy=0;entryPerimeter=0;" edge="1" parent="1" target="H-fQ_DOUVkPlajtHrgme-1">
          <mxGeometry width="50" height="50" relative="1" as="geometry">
            <mxPoint x="-543" y="960" as="sourcePoint" />
            <mxPoint x="-513" y="930" as="targetPoint" />
          </mxGeometry>
        </mxCell>
        <mxCell id="uhiNxrFIDZ629KCk4GYJ-1" value="Department" style="whiteSpace=wrap;html=1;align=center;" vertex="1" parent="1">
          <mxGeometry x="-733" y="990" width="100" height="40" as="geometry" />
        </mxCell>
        <mxCell id="uhiNxrFIDZ629KCk4GYJ-2" value="" style="endArrow=none;html=1;rounded=0;entryX=0;entryY=1;entryDx=0;entryDy=0;exitX=0.66;exitY=0;exitDx=0;exitDy=0;exitPerimeter=0;" edge="1" parent="1" source="uhiNxrFIDZ629KCk4GYJ-1" target="uIjj79Ns8Ux3DjV1TIqL-1">
          <mxGeometry width="50" height="50" relative="1" as="geometry">
            <mxPoint x="-673" y="990" as="sourcePoint" />
            <mxPoint x="-623" y="940" as="targetPoint" />
          </mxGeometry>
        </mxCell>
        <mxCell id="nNUo67NE3kjlWAvRn8E0-1" value="Workplace" style="whiteSpace=wrap;html=1;align=center;" vertex="1" parent="1">
          <mxGeometry x="510" y="725" width="100" height="40" as="geometry" />
        </mxCell>
        <mxCell id="nNUo67NE3kjlWAvRn8E0-2" value="" style="endArrow=none;html=1;rounded=0;exitX=0;exitY=0.25;exitDx=0;exitDy=0;entryX=0.67;entryY=0.95;entryDx=0;entryDy=0;entryPerimeter=0;" edge="1" parent="1" source="nNUo67NE3kjlWAvRn8E0-1" target="nNUo67NE3kjlWAvRn8E0-3">
          <mxGeometry width="50" height="50" relative="1" as="geometry">
            <mxPoint x="520" y="725" as="sourcePoint" />
            <mxPoint x="480" y="685" as="targetPoint" />
          </mxGeometry>
        </mxCell>
        <mxCell id="nNUo67NE3kjlWAvRn8E0-3" value="Address" style="whiteSpace=wrap;html=1;align=center;" vertex="1" parent="1">
          <mxGeometry x="420" y="670" width="100" height="40" as="geometry" />
        </mxCell>
        <mxCell id="nNUo67NE3kjlWAvRn8E0-9" value="" style="endArrow=none;html=1;rounded=0;exitX=0;exitY=0.25;exitDx=0;exitDy=0;entryX=0.67;entryY=0.975;entryDx=0;entryDy=0;entryPerimeter=0;" edge="1" parent="1" source="54_bh6-1oMQ8IkkRyYgu-1" target="aHvqfRXxni2usZU7KU8_-1">
          <mxGeometry width="50" height="50" relative="1" as="geometry">
            <mxPoint x="-783" y="120" as="sourcePoint" />
            <mxPoint x="-733" y="70" as="targetPoint" />
          </mxGeometry>
        </mxCell>
        <mxCell id="YK8xivvncJbw85ejbckL-1" style="edgeStyle=orthogonalEdgeStyle;rounded=0;orthogonalLoop=1;jettySize=auto;html=1;entryX=0;entryY=0.5;entryDx=0;entryDy=0;exitX=1;exitY=0.75;exitDx=0;exitDy=0;" edge="1" parent="1" source="54_bh6-1oMQ8IkkRyYgu-1" target="nNUo67NE3kjlWAvRn8E0-10">
          <mxGeometry relative="1" as="geometry">
            <Array as="points">
              <mxPoint x="-290" y="150" />
              <mxPoint x="-290" y="110" />
            </Array>
          </mxGeometry>
        </mxCell>
        <mxCell id="nNUo67NE3kjlWAvRn8E0-10" value="Relationship" style="shape=rhombus;perimeter=rhombusPerimeter;whiteSpace=wrap;html=1;align=center;" vertex="1" parent="1">
          <mxGeometry x="-273" y="80" width="120" height="60" as="geometry" />
        </mxCell>
      </root>
    </mxGraphModel>
  </diagram>
</mxfile>
